<?xml version="1.0" encoding="UTF-8"?>
<svg width="2463px" height="1266px" viewBox="0 0 2463 1266" version="1.1" xmlns="http://www.w3.org/2000/svg" xmlns:xlink="http://www.w3.org/1999/xlink">
    <!-- Generator: Sketch 46 (44423) - http://www.bohemiancoding.com/sketch -->
    <title>Main Logo@1x</title>
    <desc>Created with Sketch.</desc>
    <defs></defs>
    <g id="Final-Logo" stroke="none" stroke-width="1" fill="none" fill-rule="evenodd">
        <g id="Main-Logo">
            <g id="Group" transform="translate(449.000000, 410.000000)">
                <path d="M456.769045,151.457387 C463.467775,161.784452 471.795802,170.752559 481.753374,178.361975 C491.710946,185.971392 505.198727,195.030086 522.217123,205.538328 C540.683893,217.133629 555.257939,227.098192 565.939698,235.432315 C576.621457,243.766438 585.673659,254.002762 593.096576,266.141594 C600.519494,278.280425 604.230897,292.502574 604.230897,308.808467 C604.230897,327.288479 599.433229,343.775301 589.837751,358.269428 C580.242272,372.763555 566.663969,384.086922 549.102433,392.239869 C531.540897,400.392815 511.53553,404.469227 489.085731,404.469227 C473.877803,404.469227 458.217493,402.476315 442.104331,398.49043 C425.991169,394.504545 413.770696,389.61285 405.442545,383.815199 C402.183703,381.64108 400.373262,378.198777 400.011169,373.488186 L396.752343,290.872074 L396.752343,290.328547 C396.752343,288.879135 397.657564,288.063852 399.468031,287.882676 C401.278499,287.701499 402.364763,288.335607 402.726857,289.78502 C414.675943,319.860334 428.344769,344.49998 443.733743,363.704699 C459.122718,382.909417 478.765998,392.511632 502.66417,392.511632 C518.234192,392.511632 531.269363,388.254046 541.770076,379.738747 C552.270788,371.223447 557.521065,357.001298 557.521065,337.071873 C557.521065,321.128334 553.990706,307.177945 546.929883,295.220291 C539.869059,283.262636 531.178944,273.298073 520.859279,265.326303 C510.539613,257.354533 496.5087,247.571144 478.766117,235.975842 C461.385628,224.742894 447.807324,215.231266 438.030799,207.440672 C428.254274,199.650079 419.926248,190.047864 413.046471,178.633739 C406.166694,167.219614 402.726857,153.903334 402.726857,138.684501 C402.726857,119.842136 407.977134,103.898835 418.477846,90.8541208 C428.978559,77.8094064 442.647384,68.1166043 459.484733,61.7754237 C476.322082,55.4342431 493.973877,52.2637004 512.440647,52.2637004 C524.751826,52.2637004 537.062822,53.4413305 549.374002,55.7966262 C561.685182,58.1519218 572.004692,61.1412907 580.332843,64.7648225 C585.764246,66.9389415 588.479907,70.3812451 588.479907,75.0918364 L590.10932,149.011515 C590.10932,150.098574 589.113577,150.82327 587.122063,151.185623 C585.130549,151.547976 583.953762,151.185628 583.591669,150.098569 C576.349798,127.995025 566.663942,107.975312 554.533809,90.0388302 C542.403675,72.1023479 524.208749,63.1342413 499.948482,63.1342413 C483.654274,63.1342413 470.709624,67.844762 461.114146,77.2659446 C451.518667,86.6871272 446.721,99.550472 446.721,115.856365 C446.721,129.263432 450.070315,141.130321 456.769045,151.457387 Z M780.357887,363.161172 C781.444168,363.161172 782.43991,363.885867 783.345144,365.33528 C784.250378,366.784693 784.159856,367.871736 783.073575,368.596442 C769.676114,381.278803 757.003031,390.428084 745.053945,396.044558 C733.104858,401.661032 720.431775,404.469227 707.034315,404.469227 C691.464293,404.469227 678.3386,400.755163 667.65684,393.326923 C656.975081,385.898683 651.634282,373.488272 651.634282,356.09532 L651.634282,233.258207 C651.634282,221.300552 649.73332,213.328902 645.931338,209.343017 C642.129355,205.357132 634.797072,203.36422 623.934266,203.36422 C623.572172,203.36422 623.119562,202.911285 622.576422,202.005402 C622.033282,201.099519 621.761715,200.103063 621.761715,199.016003 C621.761715,197.928944 622.033282,196.932487 622.576422,196.026604 C623.119562,195.120722 623.572172,194.667787 623.934266,194.667787 C657.971057,193.218374 679.334255,178.543291 688.0245,150.642096 C688.748687,149.192683 690.287561,148.467988 692.641169,148.467988 C694.994777,148.467988 696.171563,149.192683 696.171563,150.642096 L696.171563,193.580733 C713.189959,193.21838 737.268817,191.406641 768.40886,188.145462 C769.133048,188.145462 769.947746,189.504266 770.85298,192.221915 C771.758213,194.939564 772.210823,197.928933 772.210823,201.190111 C772.210823,204.45129 771.577169,207.71242 770.309842,210.973598 C769.042515,214.234777 767.684684,215.684168 766.23631,215.321815 C745.959073,210.611223 722.604391,207.712441 696.171563,206.625382 L696.171563,338.158927 C696.171563,352.290701 699.701922,362.708199 706.762746,369.411733 C713.82357,376.115266 723.69047,379.466983 736.363744,379.466983 C751.571672,379.466983 765.874151,374.212941 779.271612,363.704699 L780.357887,363.161172 Z M994.180208,363.704699 C994.904395,363.704699 995.719093,364.429394 996.624327,365.878807 C997.529561,367.32822 997.620083,368.415263 996.895896,369.139969 C983.498435,381.459977 970.101176,390.428084 956.703715,396.044558 C943.306255,401.661032 928.822731,404.469227 913.252709,404.469227 C891.165004,404.469227 872.064857,399.577533 855.951695,389.793997 C839.838534,380.010461 827.527538,367.147116 819.01834,351.203577 C810.509143,335.260037 806.254607,318.048519 806.254607,299.568507 C806.254607,278.18967 811.504885,258.622892 822.005597,240.867586 C832.506309,223.11228 846.899311,209.071305 865.185034,198.74424 C883.470757,188.417174 903.838213,183.253719 926.288011,183.253719 C948.013623,183.253719 964.850719,188.507761 976.799806,199.016003 C988.748892,209.524245 994.723346,225.105198 994.723346,245.759329 C994.723346,256.267571 992.550817,261.521614 988.205695,261.521614 L855.680127,262.065141 C855.318033,265.326319 855.136989,270.218014 855.136989,276.740371 C855.136989,308.627451 862.469273,333.901206 877.134061,352.562394 C891.798849,371.223583 912.709436,380.554037 939.866451,380.554037 C950.005069,380.554037 958.51414,379.376407 965.393917,377.021111 C972.273694,374.665816 981.50694,370.40823 993.093933,364.248226 L994.180208,363.704699 Z M873.875235,209.614781 C865.366038,219.941846 859.66315,234.163995 856.766402,252.281654 L943.668414,250.651073 C942.944227,212.966342 930.633231,194.12426 906.735059,194.12426 C893.337598,194.12426 882.384433,199.287715 873.875235,209.614781 Z M1229.47404,368.596442 C1230.92241,368.596442 1231.82763,369.411725 1232.18973,371.042314 C1232.55182,372.672903 1232.00869,373.850533 1230.56032,374.57524 L1174.61715,401.208065 C1173.16877,401.932771 1171.53937,402.295119 1169.72891,402.295119 C1164.2975,402.295119 1159.13775,399.124576 1154.24949,392.783396 C1149.36122,386.442215 1146.19295,378.01763 1144.74458,367.509388 L1119.76025,384.902254 C1111.07001,391.062258 1103.19459,395.41043 1096.13377,397.946903 C1089.07294,400.483375 1081.19753,401.751592 1072.50728,401.751592 C1057.66145,401.751592 1046.34619,398.218702 1038.56118,391.152815 C1030.77617,384.086928 1026.88373,374.756473 1026.88373,363.161172 C1026.88373,353.377636 1029.50886,345.405986 1034.75922,339.245982 C1040.00958,333.085978 1046.70821,328.103696 1054.85531,324.298988 C1063.00241,320.494279 1075.04184,315.693172 1090.97396,309.895521 L1143.6583,290.328547 L1143.6583,257.716924 C1143.6583,235.251027 1141.39525,218.854792 1136.86908,208.527727 C1132.34291,198.200661 1125.19167,193.037206 1115.41515,193.037206 C1103.46606,193.037206 1094.86647,197.475966 1089.61611,206.353618 C1084.36576,215.231271 1081.19749,225.105247 1080.11121,235.975842 C1077.93865,254.455854 1068.7054,263.695722 1052.41119,263.695722 C1044.44513,263.695722 1038.5612,261.883983 1034.75922,258.260451 C1030.95724,254.63692 1029.05628,250.107573 1029.05628,244.672275 C1029.05628,234.526386 1035.12125,224.65241 1047.25138,215.050051 C1059.38152,205.447692 1074.04609,197.657216 1091.24553,191.678388 C1108.44497,185.699561 1123.56215,182.710192 1136.59751,182.710192 C1152.16754,182.710192 1164.56905,187.601886 1173.80244,197.385422 C1183.03582,207.168958 1187.65245,221.844041 1187.65245,241.411113 L1187.65245,339.245982 C1187.65245,350.47893 1189.46289,358.994102 1193.08382,364.791753 C1196.70476,370.589404 1201.95504,373.488186 1208.83481,373.488186 C1214.26622,373.488186 1220.7838,371.857621 1228.38776,368.596442 L1229.47404,368.596442 Z M1143.6583,358.812955 L1143.6583,299.568507 L1111.07005,313.156683 C1101.65562,316.780215 1093.96125,321.037801 1087.9867,325.929569 C1082.01216,330.821337 1079.02493,337.796531 1079.02493,346.85536 C1079.02493,355.551836 1081.83111,362.52703 1087.44356,367.781152 C1093.05601,373.035273 1099.84517,375.662294 1107.81122,375.662294 C1114.32891,375.662294 1121.20858,373.488207 1128.45045,369.139969 L1143.6583,358.812955 Z M1411.25124,195.066637 C1418.85521,200.501935 1422.65713,207.024194 1422.65713,214.633611 C1422.65713,221.518321 1420.57513,227.134711 1416.41105,231.48295 C1412.24698,235.831188 1406.54409,238.005274 1399.30222,238.005274 C1394.595,238.005274 1390.70255,237.008818 1387.62476,235.015875 C1384.54696,233.022933 1381.37869,230.214738 1378.11985,226.591206 C1374.86101,223.330028 1371.96431,220.88418 1369.42965,219.253591 C1366.895,217.623002 1363.81725,216.807719 1360.19631,216.807719 C1356.21328,216.807719 1351.95875,218.347697 1347.43258,221.427699 C1342.90641,224.507701 1335.93621,230.939374 1326.52178,240.722909 L1326.52178,358.124752 C1326.52178,368.270641 1327.97014,375.97053 1330.86688,381.224651 C1333.76363,386.478772 1338.65182,390.192837 1345.5316,392.366956 C1352.41137,394.541075 1362.54984,395.628118 1375.9473,395.628118 C1377.39568,395.628118 1378.11985,396.715161 1378.11985,398.88928 C1378.11985,401.063399 1377.39568,402.150442 1375.9473,402.150442 C1363.99822,402.150442 1354.40288,401.969269 1347.16101,401.606915 L1304.25314,401.063388 L1272.75116,401.606915 C1267.68185,401.969269 1260.62114,402.150442 1251.5688,402.150442 C1250.48252,402.150442 1249.93938,401.063399 1249.93938,398.88928 C1249.93938,396.715161 1250.48252,395.628118 1251.5688,395.628118 C1263.87998,395.628118 1272.02696,393.091684 1276.00999,388.018739 C1279.99302,382.945795 1281.9845,372.981232 1281.9845,358.124752 L1281.9845,254.311086 C1281.9845,242.715784 1280.62667,234.200612 1277.91097,228.765314 C1275.19527,223.330017 1270.75969,220.612409 1264.6041,220.612409 C1259.1727,220.612409 1250.12049,223.330017 1237.44722,228.765314 L1236.90408,228.765314 C1235.45571,228.765314 1234.36944,227.859445 1233.64526,226.047679 C1232.92107,224.235913 1233.10211,223.14887 1234.1884,222.786517 L1305.33942,188.000786 C1307.51198,187.276079 1308.77929,186.913732 1309.14138,186.913732 C1312.76232,186.913732 1316.3832,190.80897 1320.00413,198.599563 C1323.62507,206.390156 1325.7976,216.62648 1326.52178,229.308841 C1340.64343,213.365302 1352.41129,202.313695 1361.82572,196.153691 C1371.24016,189.993687 1379.74923,186.913732 1387.35319,186.913732 C1395.68134,186.913732 1403.64728,189.63134 1411.25124,195.066637 Z M1486.88021,244.672275 C1494.66522,252.281692 1505.98047,260.253342 1520.8263,268.587465 C1533.86167,275.834529 1543.90962,281.813267 1550.97044,286.523858 C1558.03126,291.234449 1564.18676,297.575535 1569.43712,305.547305 C1574.68747,313.519074 1577.31261,323.12129 1577.31261,334.354238 C1577.31261,346.674246 1574.23486,358.0882 1568.07927,368.596442 C1561.92368,379.104684 1552.78096,387.619856 1540.65083,394.142213 C1528.52069,400.664571 1514.12769,403.9257 1497.47139,403.9257 C1477.55625,403.9257 1459.2708,398.852832 1442.61449,388.706943 C1440.44193,386.532824 1439.35567,384.358737 1439.35567,382.184618 L1438.26939,332.18013 C1438.26939,331.09307 1439.26514,330.458962 1441.25665,330.277785 C1443.24816,330.096609 1444.42495,330.368369 1444.78704,331.093076 C1450.94263,349.210735 1460.2664,364.066992 1472.75863,375.662294 C1485.25086,387.257595 1498.55759,393.055159 1512.67924,393.055159 C1521.73158,393.055159 1528.7923,390.699899 1533.86161,385.989308 C1538.93092,381.278716 1541.46553,374.212935 1541.46553,364.791753 C1541.46553,351.022332 1537.48256,340.061313 1529.51651,331.908366 C1521.55045,323.75542 1509.96363,315.693183 1494.7557,307.721413 C1482.44452,301.199056 1472.84919,295.673253 1465.96941,291.143838 C1459.08963,286.614423 1453.2057,280.454511 1448.31744,272.663918 C1443.42918,264.873325 1440.98508,255.180523 1440.98508,243.585221 C1440.98508,222.93109 1448.49841,207.531311 1463.52529,197.385422 C1478.55217,187.239533 1496.7471,182.166665 1518.11062,182.166665 C1532.23226,182.166665 1546.71579,184.884273 1561.56162,190.31957 C1564.82046,191.768983 1566.44986,193.761896 1566.44986,196.298368 C1566.44986,204.632491 1566.26882,211.15475 1565.90672,215.865342 L1565.36359,241.95464 C1565.36359,243.0417 1564.27732,243.585221 1562.10476,243.585221 C1559.9322,243.585221 1558.84594,243.0417 1558.84594,241.95464 C1558.84594,234.707576 1555.94923,227.188861 1550.15573,219.398268 C1544.36224,211.607674 1536.93943,205.176002 1527.88709,200.103057 C1518.83476,195.030113 1509.60151,192.493679 1500.18708,192.493679 C1483.53077,192.493679 1475.20275,200.465329 1475.20275,216.408869 C1475.20275,227.641817 1479.0952,237.062859 1486.88021,244.672275 Z" id="Stears" fill="#4A4A4A"></path>
                <path d="M101.760765,231.31395 C99.4191464,247.06618 89.7477218,260.45667 76.2880825,267.978029 C59.6534738,277.690602 38.2662014,277.551239 21.5413014,265.868393 C3.72885614,253.425863 -3.5588957,231.547485 1.64325659,211.594343 C6.54626476,192.129331 22.8320018,177.125891 43.093192,173.919767 C48.7227801,173.011814 54.5006715,173.042675 60.171895,174.058159 C65.5732735,175.003826 70.6817218,176.789895 75.3545914,179.27509 L138.664388,89.0759307 C119.557332,72.250779 115.843083,43.3001698 130.912968,21.8297024 C147.097399,-1.22868868 178.818487,-6.9278388 201.764002,9.10029429 C224.709517,25.1284274 230.190458,56.8143158 214.006027,79.8727068 C199.672276,100.294386 173.151925,107.099874 151.334297,97.2547623 L87.4763819,188.234841 C94.9383733,195.678889 100.07912,205.408145 101.733809,216.269046 L243.780405,216.269046 C244.851413,208.46055 247.756114,200.77315 252.607665,193.861016 C268.792096,170.802624 300.513184,165.103474 323.458699,181.131607 C346.404213,197.159741 351.885155,228.845629 335.700724,251.90402 C321.519257,272.108736 295.408761,278.985045 273.725949,269.59423 L208.60294,360.048396 C225.715112,377.105266 228.540454,404.578122 214.087032,425.170298 C197.902601,448.228689 166.181513,453.927839 143.235998,437.899706 C120.290483,421.871573 114.809542,390.185684 130.993973,367.127293 C145.947185,345.823052 174.163091,339.337332 196.466661,351.115204 L260.918797,261.592864 C251.59153,253.619466 245.812973,242.800756 243.959736,231.31395 L101.760765,231.31395 Z" id="Combined-Shape" fill="#F05042"></path>
            </g>
        </g>
    </g>
</svg>